<?xml version="1.0" encoding="UTF-8" standalone="no"?>
<svg
   viewBox="0 0 25 25"
   version="1.1"
   id="svg84"
   sodipodi:docname="wardrobe-white.svg"
   inkscape:version="1.2.1 (9c6d41e4, 2022-07-14)"
   xmlns:inkscape="http://www.inkscape.org/namespaces/inkscape"
   xmlns:sodipodi="http://sodipodi.sourceforge.net/DTD/sodipodi-0.dtd"
   xmlns="http://www.w3.org/2000/svg"
   xmlns:svg="http://www.w3.org/2000/svg">
  <sodipodi:namedview
     id="namedview86"
     pagecolor="#ffffff"
     bordercolor="#000000"
     borderopacity="0.25"
     inkscape:showpageshadow="2"
     inkscape:pageopacity="0.0"
     inkscape:pagecheckerboard="0"
     inkscape:deskcolor="#d1d1d1"
     showgrid="false"
     inkscape:zoom="9.44"
     inkscape:cx="12.5"
     inkscape:cy="12.5"
     inkscape:window-width="1280"
     inkscape:window-height="456"
     inkscape:window-x="0"
     inkscape:window-y="25"
     inkscape:window-maximized="0"
     inkscape:current-layer="svg84" />
  <defs
     id="defs69">
    <style
       id="style67">.cls-1{fill:#231f20;}</style>
  </defs>
  <g
     id="wardrobe_2"
     data-name="wardrobe 2"
     style="fill:#ffffff">
    <path
       class="cls-1"
       d="M21.08,1H3.92A.92.92,0,0,0,3,1.92V21.5a.5.5,0,0,0,.5.5H4v1.5a.5.5,0,0,0,.5.5h16a.5.5,0,0,0,.5-.5V22h.5a.5.5,0,0,0,.5-.5V1.92A.92.92,0,0,0,21.08,1ZM21,13H16V2h5Zm0,4H16V14h5ZM15,2V21H10V2ZM4,2H9V21H4ZM20,23H5V22H20Zm.5-2H16V18h5v3Z"
       id="path71"
       style="fill:#ffffff" />
    <path
       class="cls-1"
       d="M7.5,12a.5.5,0,0,0,.5-.5v-1a.5.5,0,0,0-1,0v1A.5.5,0,0,0,7.5,12Z"
       id="path73"
       style="fill:#ffffff" />
    <path
       class="cls-1"
       d="M11.5,12a.5.5,0,0,0,.5-.5v-1a.5.5,0,0,0-1,0v1A.5.5,0,0,0,11.5,12Z"
       id="path75"
       style="fill:#ffffff" />
    <path
       class="cls-1"
       d="M17.5,12a.5.5,0,0,0,.5-.5v-1a.5.5,0,0,0-1,0v1A.5.5,0,0,0,17.5,12Z"
       id="path77"
       style="fill:#ffffff" />
    <path
       class="cls-1"
       d="M18.52,16a.5.5,0,0,0,0-1h0a.49.49,0,0,0-.49.5A.5.5,0,0,0,18.52,16Z"
       id="path79"
       style="fill:#ffffff" />
    <path
       class="cls-1"
       d="M18.52,19h0a.49.49,0,0,0-.49.5.5.5,0,1,0,.5-.5Z"
       id="path81"
       style="fill:#ffffff" />
  </g>
</svg>
