<?xml version="1.0" encoding="UTF-8" standalone="no"?>
<svg
   viewBox="0 0 25 25"
   version="1.1"
   id="svg52"
   sodipodi:docname="bed-white.svg"
   inkscape:version="1.2.1 (9c6d41e4, 2022-07-14)"
   xmlns:inkscape="http://www.inkscape.org/namespaces/inkscape"
   xmlns:sodipodi="http://sodipodi.sourceforge.net/DTD/sodipodi-0.dtd"
   xmlns="http://www.w3.org/2000/svg"
   xmlns:svg="http://www.w3.org/2000/svg">
  <sodipodi:namedview
     id="namedview54"
     pagecolor="#ffffff"
     bordercolor="#000000"
     borderopacity="0.25"
     inkscape:showpageshadow="2"
     inkscape:pageopacity="0.0"
     inkscape:pagecheckerboard="0"
     inkscape:deskcolor="#d1d1d1"
     showgrid="false"
     inkscape:zoom="10.842363"
     inkscape:cx="8.6696967"
     inkscape:cy="10.883236"
     inkscape:window-width="1280"
     inkscape:window-height="688"
     inkscape:window-x="0"
     inkscape:window-y="25"
     inkscape:window-maximized="1"
     inkscape:current-layer="svg52" />
  <defs
     id="defs47">
    <style
       id="style45">.cls-1{fill:#231f20;}</style>
  </defs>
  <g
     id="double_bed"
     data-name="double bed"
     style="fill:#ffffff">
    <path
       class="cls-1"
       d="M21,12.51h0v-8a.5.5,0,0,0-1,0V5H5V4.5a.5.5,0,0,0-1,0v8H4a4.35,4.35,0,0,0-3,3.81V20.5a.5.5,0,0,0,1,0V20H23v.5a.5.5,0,0,0,1,0V16.32A4.35,4.35,0,0,0,21,12.51ZM18,12H14V11a1,1,0,0,1,1-1H17a1,1,0,0,1,1,1Zm2-6v6H19V11a2,2,0,0,0-2-2H15a2,2,0,0,0-2,2v1H12V11a2,2,0,0,0-2-2H8a2,2,0,0,0-2,2v1H5V6Zm-9,6H7V11a1,1,0,0,1,1-1H10a1,1,0,0,1,1,1ZM2,19V16.32C2,14.49,4.1,13,6.68,13H18.32C20.9,13,23,14.49,23,16.32V19Z"
       id="path49"
       style="fill:#ffffff" />
  </g>
</svg>
