<svg width="315" height="65" viewBox="0 0 315 65" fill="none" xmlns="http://www.w3.org/2000/svg">
<path d="M156.851 64.8309C174.488 64.8309 188.833 50.4861 188.833 32.8525C188.833 15.216 174.488 0.871155 156.851 0.871155C139.215 0.871155 124.87 15.216 124.87 32.8525C124.873 50.4861 139.218 64.8309 156.851 64.8309ZM156.851 1.4502C174.166 1.4502 188.254 15.5383 188.254 32.8525C188.254 50.1666 174.168 64.2519 156.854 64.2519C139.54 64.2519 125.452 50.1666 125.452 32.8525C125.452 15.5383 139.537 1.4502 156.851 1.4502Z" fill="#303030"/>
<path d="M143.665 44.4473L158.861 45.7964C158.874 44.5709 158.958 40.3237 159.565 38.3907C160.257 36.1843 166.534 36.9864 168.131 37.2284C169.025 32.7313 170.542 29.8832 170.608 29.7622C170.687 29.615 170.871 29.5597 171.018 29.6386C171.166 29.7175 171.221 29.9016 171.142 30.0489C171.126 30.0778 169.538 33.0653 168.67 37.6281C168.638 37.7885 168.483 37.8963 168.323 37.87C165.396 37.3861 160.588 37.1468 160.144 38.5696C159.473 40.705 159.465 46.0725 159.465 46.1251C159.465 46.2093 159.429 46.2908 159.368 46.3487C159.313 46.3986 159.239 46.4276 159.163 46.4276C159.155 46.4276 159.145 46.4276 159.137 46.4276L143.615 45.0495C143.45 45.0337 143.326 44.8865 143.342 44.7208C143.35 44.5551 143.5 44.4341 143.665 44.4473Z" fill="#303030"/>
<path d="M140.738 37.0022C140.964 36.6156 141.333 36.3763 141.835 36.2895C143.415 36.016 152.822 37.0416 154.598 37.2389C154.711 36.6419 154.932 35.1166 154.545 33.7622C154.143 32.3526 153.304 29.4203 155.697 28.6761C156.817 28.3263 158.069 28.4894 159.515 28.6761C160.688 28.8286 162.019 28.9996 163.51 28.9233C164.286 28.8839 164.933 28.8549 165.519 28.8286C167.429 28.7445 168.694 28.6892 171.623 28.3447C172.215 28.1659 172.857 28.2895 173.34 28.6814C173.835 29.0811 174.095 29.6938 174.035 30.3276L172.149 50.5275C172.139 50.6564 172.047 50.7616 171.923 50.7931L171.849 50.8115V51.3375C171.849 51.448 171.776 51.5453 171.668 51.5742L170.166 51.966C170.011 52.0055 169.861 51.8898 169.861 51.7293V51.3112L163.326 52.9549V53.4992C163.326 53.6097 163.255 53.707 163.147 53.7412L161.078 54.3802C161.038 54.3934 160.996 54.396 160.957 54.3881L159.392 54.0962C159.273 54.0752 159.187 53.97 159.187 53.849V53.3257L143.281 51.5689V51.8529C143.281 51.9765 143.174 52.0739 143.05 52.0607L141.706 51.9029C141.601 51.8898 141.522 51.8004 141.522 51.6952V51.3585C141.409 51.3138 141.327 51.2086 141.327 51.0798V40.3894L140.715 39.2244C140.707 39.2113 140.701 39.1981 140.696 39.185C140.673 39.1324 140.236 37.8622 140.738 37.0022ZM141.256 38.9667L141.893 40.1791C141.916 40.2238 141.927 40.2711 141.927 40.3211V50.8168L160.717 52.8917L161.059 40.5078C161.064 40.3395 161.204 40.2054 161.369 40.2132C161.538 40.2185 161.669 40.3579 161.664 40.5236L161.325 52.8365L171.565 50.2619L173.433 30.275C173.472 29.8464 173.296 29.4282 172.959 29.1574C172.623 28.8865 172.194 28.805 171.776 28.9365C171.757 28.9417 171.739 28.947 171.718 28.9496C168.746 29.2994 167.471 29.3546 165.543 29.4414C164.959 29.4677 164.312 29.4966 163.539 29.5361C161.993 29.615 160.633 29.4414 159.434 29.2862C158.056 29.1074 156.867 28.9549 155.873 29.2652C154.266 29.7649 154.563 31.6478 155.124 33.6071C155.657 35.4795 155.147 37.5676 155.126 37.6544C155.089 37.8017 154.953 37.899 154.797 37.8806C150.916 37.4414 143.234 36.6682 141.932 36.8944C141.611 36.9496 141.39 37.089 141.256 37.3151C140.967 37.8069 141.154 38.6537 141.256 38.9667Z" fill="#303030"/>
<path d="M145.496 35.7504C145.664 35.7504 145.798 35.6136 145.798 35.448V22.6827C145.798 22.5144 145.661 22.3802 145.496 22.3802C145.327 22.3802 145.193 22.517 145.193 22.6827V35.448C145.193 35.6163 145.33 35.7504 145.496 35.7504Z" fill="#303030"/>
<path d="M139.962 22.0331H151.031C151.129 22.0331 151.221 21.9858 151.279 21.9042C151.337 21.8253 151.35 21.7228 151.318 21.6281L147.773 11.5111C147.731 11.3901 147.615 11.3086 147.486 11.3086H143.507C143.379 11.3086 143.266 11.3901 143.221 11.5111L139.676 21.6281C139.644 21.7202 139.657 21.8227 139.715 21.9042C139.773 21.9858 139.865 22.0331 139.962 22.0331Z" fill="#303030"/>
<path d="M144.125 24.6498C144.294 24.6498 144.428 24.5131 144.428 24.3474V22.6827C144.428 22.5144 144.291 22.3802 144.125 22.3802C143.957 22.3802 143.823 22.517 143.823 22.6827V24.3474C143.823 24.5131 143.957 24.6498 144.125 24.6498Z" fill="#303030"/>
<path d="M147.962 24.229C148.815 24.229 149.509 23.5347 149.509 22.6827C149.509 22.5144 149.372 22.3802 149.206 22.3802C149.038 22.3802 148.904 22.517 148.904 22.6827C148.904 23.2008 148.481 23.6242 147.962 23.6242C147.444 23.6242 147.021 23.2008 147.021 22.6827C147.021 22.5144 146.884 22.3802 146.719 22.3802C146.55 22.3802 146.416 22.517 146.416 22.6827C146.416 23.5347 147.11 24.229 147.962 24.229Z" fill="#303030"/>
<rect y="32" width="105" height="1" rx="0.5" fill="#BDBDBD"/>
<rect x="210" y="32" width="105" height="1" rx="0.5" fill="#BDBDBD"/>
</svg>
